<mxfile host="app.diagrams.net" agent="Mozilla/5.0 (Macintosh; Intel Mac OS X 10_15_7) AppleWebKit/537.36 (KHTML, like Gecko) Chrome/128.0.0.0 Safari/537.36" version="24.7.16" pages="2">
  <diagram name="use-case-upload-a-resume" id="6w6huNik9N7S7DG-Y8u_">
    <mxGraphModel dx="2003" dy="1050" grid="1" gridSize="10" guides="1" tooltips="1" connect="1" arrows="1" fold="1" page="1" pageScale="1" pageWidth="827" pageHeight="1169" math="0" shadow="0">
      <root>
        <mxCell id="0" />
        <mxCell id="1" parent="0" />
        <mxCell id="VdA5xrBJ5W-MHvM-NQZQ-1" value="Job candidate" style="shape=umlLifeline;perimeter=lifelinePerimeter;whiteSpace=wrap;html=1;container=1;dropTarget=0;collapsible=0;recursiveResize=0;outlineConnect=0;portConstraint=eastwest;newEdgeStyle={&quot;curved&quot;:0,&quot;rounded&quot;:0};participant=umlActor;labelPosition=center;verticalLabelPosition=top;align=center;verticalAlign=bottom;" vertex="1" parent="1">
          <mxGeometry x="-10" y="100" width="20" height="310" as="geometry" />
        </mxCell>
        <mxCell id="VdA5xrBJ5W-MHvM-NQZQ-13" value="" style="html=1;points=[[0,0,0,0,5],[0,1,0,0,-5],[1,0,0,0,5],[1,1,0,0,-5]];perimeter=orthogonalPerimeter;outlineConnect=0;targetShapes=umlLifeline;portConstraint=eastwest;newEdgeStyle={&quot;curved&quot;:0,&quot;rounded&quot;:0};" vertex="1" parent="VdA5xrBJ5W-MHvM-NQZQ-1">
          <mxGeometry x="5" y="70" width="10" height="90" as="geometry" />
        </mxCell>
        <mxCell id="VdA5xrBJ5W-MHvM-NQZQ-2" value="Story Container" style="shape=umlLifeline;perimeter=lifelinePerimeter;whiteSpace=wrap;html=1;container=1;dropTarget=0;collapsible=0;recursiveResize=0;outlineConnect=0;portConstraint=eastwest;newEdgeStyle={&quot;edgeStyle&quot;:&quot;elbowEdgeStyle&quot;,&quot;elbow&quot;:&quot;vertical&quot;,&quot;curved&quot;:0,&quot;rounded&quot;:0};fontColor=#FFFFFF;fillColor=#24A2D9;rounded=1;" vertex="1" parent="1">
          <mxGeometry x="750" y="100" width="100" height="310" as="geometry" />
        </mxCell>
        <mxCell id="VdA5xrBJ5W-MHvM-NQZQ-4" value="Candidate API" style="shape=umlLifeline;perimeter=lifelinePerimeter;whiteSpace=wrap;html=1;container=1;dropTarget=0;collapsible=0;recursiveResize=0;outlineConnect=0;portConstraint=eastwest;newEdgeStyle={&quot;edgeStyle&quot;:&quot;elbowEdgeStyle&quot;,&quot;elbow&quot;:&quot;vertical&quot;,&quot;curved&quot;:0,&quot;rounded&quot;:0};fontColor=#FFFFFF;fillColor=#63BEF2;rounded=1;" vertex="1" parent="1">
          <mxGeometry x="150" y="100" width="100" height="310" as="geometry" />
        </mxCell>
        <mxCell id="VdA5xrBJ5W-MHvM-NQZQ-17" value="" style="html=1;points=[[0,0,0,0,5],[0,1,0,0,-5],[1,0,0,0,5],[1,1,0,0,-5]];perimeter=orthogonalPerimeter;outlineConnect=0;targetShapes=umlLifeline;portConstraint=eastwest;newEdgeStyle={&quot;curved&quot;:0,&quot;rounded&quot;:0};" vertex="1" parent="VdA5xrBJ5W-MHvM-NQZQ-4">
          <mxGeometry x="45" y="80" width="10" height="80" as="geometry" />
        </mxCell>
        <mxCell id="VdA5xrBJ5W-MHvM-NQZQ-5" value="Resume service" style="shape=umlLifeline;perimeter=lifelinePerimeter;whiteSpace=wrap;html=1;container=1;dropTarget=0;collapsible=0;recursiveResize=0;outlineConnect=0;portConstraint=eastwest;newEdgeStyle={&quot;edgeStyle&quot;:&quot;elbowEdgeStyle&quot;,&quot;elbow&quot;:&quot;vertical&quot;,&quot;curved&quot;:0,&quot;rounded&quot;:0};fontColor=#FFFFFF;fillColor=#63BEF2;rounded=1;" vertex="1" parent="1">
          <mxGeometry x="270" y="100" width="100" height="310" as="geometry" />
        </mxCell>
        <mxCell id="VdA5xrBJ5W-MHvM-NQZQ-20" value="" style="html=1;points=[[0,0,0,0,5],[0,1,0,0,-5],[1,0,0,0,5],[1,1,0,0,-5]];perimeter=orthogonalPerimeter;outlineConnect=0;targetShapes=umlLifeline;portConstraint=eastwest;newEdgeStyle={&quot;curved&quot;:0,&quot;rounded&quot;:0};" vertex="1" parent="VdA5xrBJ5W-MHvM-NQZQ-5">
          <mxGeometry x="45" y="90" width="10" height="70" as="geometry" />
        </mxCell>
        <mxCell id="VdA5xrBJ5W-MHvM-NQZQ-40" value="" style="html=1;points=[[0,0,0,0,5],[0,1,0,0,-5],[1,0,0,0,5],[1,1,0,0,-5]];perimeter=orthogonalPerimeter;outlineConnect=0;targetShapes=umlLifeline;portConstraint=eastwest;newEdgeStyle={&quot;curved&quot;:0,&quot;rounded&quot;:0};" vertex="1" parent="VdA5xrBJ5W-MHvM-NQZQ-5">
          <mxGeometry x="45" y="210" width="10" height="60" as="geometry" />
        </mxCell>
        <mxCell id="VdA5xrBJ5W-MHvM-NQZQ-6" value="AI Resume Tips Adapter" style="shape=umlLifeline;perimeter=lifelinePerimeter;whiteSpace=wrap;html=1;container=1;dropTarget=0;collapsible=0;recursiveResize=0;outlineConnect=0;portConstraint=eastwest;newEdgeStyle={&quot;edgeStyle&quot;:&quot;elbowEdgeStyle&quot;,&quot;elbow&quot;:&quot;vertical&quot;,&quot;curved&quot;:0,&quot;rounded&quot;:0};fontColor=#FFFFFF;fillColor=#63BEF2;rounded=1;" vertex="1" parent="1">
          <mxGeometry x="510" y="100" width="100" height="310" as="geometry" />
        </mxCell>
        <mxCell id="VdA5xrBJ5W-MHvM-NQZQ-23" value="" style="html=1;points=[[0,0,0,0,5],[0,1,0,0,-5],[1,0,0,0,5],[1,1,0,0,-5]];perimeter=orthogonalPerimeter;outlineConnect=0;targetShapes=umlLifeline;portConstraint=eastwest;newEdgeStyle={&quot;curved&quot;:0,&quot;rounded&quot;:0};" vertex="1" parent="VdA5xrBJ5W-MHvM-NQZQ-6">
          <mxGeometry x="45" y="140" width="10" height="80" as="geometry" />
        </mxCell>
        <mxCell id="VdA5xrBJ5W-MHvM-NQZQ-7" value="AI Resume Tips System" style="shape=umlLifeline;perimeter=lifelinePerimeter;whiteSpace=wrap;html=1;container=1;dropTarget=0;collapsible=0;recursiveResize=0;outlineConnect=0;portConstraint=eastwest;newEdgeStyle={&quot;edgeStyle&quot;:&quot;elbowEdgeStyle&quot;,&quot;elbow&quot;:&quot;vertical&quot;,&quot;curved&quot;:0,&quot;rounded&quot;:0};fontColor=#FFFFFF;fillColor=#8C8496;rounded=1;gradientColor=none;" vertex="1" parent="1">
          <mxGeometry x="630" y="100" width="100" height="310" as="geometry" />
        </mxCell>
        <mxCell id="VdA5xrBJ5W-MHvM-NQZQ-35" value="" style="html=1;points=[[0,0,0,0,5],[0,1,0,0,-5],[1,0,0,0,5],[1,1,0,0,-5]];perimeter=orthogonalPerimeter;outlineConnect=0;targetShapes=umlLifeline;portConstraint=eastwest;newEdgeStyle={&quot;curved&quot;:0,&quot;rounded&quot;:0};" vertex="1" parent="VdA5xrBJ5W-MHvM-NQZQ-7">
          <mxGeometry x="45" y="150" width="10" height="70" as="geometry" />
        </mxCell>
        <mxCell id="VdA5xrBJ5W-MHvM-NQZQ-8" value="Job candidate database" style="shape=umlLifeline;perimeter=lifelinePerimeter;whiteSpace=wrap;html=1;container=1;dropTarget=0;collapsible=0;recursiveResize=0;outlineConnect=0;portConstraint=eastwest;newEdgeStyle={&quot;edgeStyle&quot;:&quot;elbowEdgeStyle&quot;,&quot;elbow&quot;:&quot;vertical&quot;,&quot;curved&quot;:0,&quot;rounded&quot;:0};fontColor=#FFFFFF;fillColor=#63BEF2;rounded=1;" vertex="1" parent="1">
          <mxGeometry x="390" y="100" width="100" height="310" as="geometry" />
        </mxCell>
        <mxCell id="VdA5xrBJ5W-MHvM-NQZQ-26" value="" style="html=1;points=[[0,0,0,0,5],[0,1,0,0,-5],[1,0,0,0,5],[1,1,0,0,-5]];perimeter=orthogonalPerimeter;outlineConnect=0;targetShapes=umlLifeline;portConstraint=eastwest;newEdgeStyle={&quot;curved&quot;:0,&quot;rounded&quot;:0};" vertex="1" parent="VdA5xrBJ5W-MHvM-NQZQ-8">
          <mxGeometry x="45" y="100" width="10" height="30" as="geometry" />
        </mxCell>
        <mxCell id="VdA5xrBJ5W-MHvM-NQZQ-44" value="" style="html=1;points=[[0,0,0,0,5],[0,1,0,0,-5],[1,0,0,0,5],[1,1,0,0,-5]];perimeter=orthogonalPerimeter;outlineConnect=0;targetShapes=umlLifeline;portConstraint=eastwest;newEdgeStyle={&quot;curved&quot;:0,&quot;rounded&quot;:0};" vertex="1" parent="VdA5xrBJ5W-MHvM-NQZQ-8">
          <mxGeometry x="45" y="240" width="10" height="30" as="geometry" />
        </mxCell>
        <mxCell id="VdA5xrBJ5W-MHvM-NQZQ-9" value="Clear View UI" style="shape=umlLifeline;perimeter=lifelinePerimeter;whiteSpace=wrap;html=1;container=1;dropTarget=0;collapsible=0;recursiveResize=0;outlineConnect=0;portConstraint=eastwest;newEdgeStyle={&quot;edgeStyle&quot;:&quot;elbowEdgeStyle&quot;,&quot;elbow&quot;:&quot;vertical&quot;,&quot;curved&quot;:0,&quot;rounded&quot;:0};fontColor=#FFFFFF;fillColor=#24A2D9;rounded=1;" vertex="1" parent="1">
          <mxGeometry x="30" y="100" width="100" height="310" as="geometry" />
        </mxCell>
        <mxCell id="VdA5xrBJ5W-MHvM-NQZQ-10" value="" style="html=1;points=[[0,0,0,0,5],[0,1,0,0,-5],[1,0,0,0,5],[1,1,0,0,-5]];perimeter=orthogonalPerimeter;outlineConnect=0;targetShapes=umlLifeline;portConstraint=eastwest;newEdgeStyle={&quot;curved&quot;:0,&quot;rounded&quot;:0};" vertex="1" parent="VdA5xrBJ5W-MHvM-NQZQ-9">
          <mxGeometry x="45" y="70" width="10" height="90" as="geometry" />
        </mxCell>
        <mxCell id="VdA5xrBJ5W-MHvM-NQZQ-15" value="" style="edgeStyle=elbowEdgeStyle;fontSize=12;html=1;endArrow=blockThin;endFill=1;rounded=0;entryX=0;entryY=0;entryDx=0;entryDy=5;entryPerimeter=0;exitX=1;exitY=0;exitDx=0;exitDy=5;exitPerimeter=0;" edge="1" parent="1" source="VdA5xrBJ5W-MHvM-NQZQ-13" target="VdA5xrBJ5W-MHvM-NQZQ-10">
          <mxGeometry width="160" relative="1" as="geometry">
            <mxPoint x="-140" y="220" as="sourcePoint" />
            <mxPoint x="20" y="220" as="targetPoint" />
          </mxGeometry>
        </mxCell>
        <mxCell id="VdA5xrBJ5W-MHvM-NQZQ-16" value="upload&lt;br&gt;resume" style="edgeLabel;html=1;align=center;verticalAlign=middle;resizable=0;points=[];" vertex="1" connectable="0" parent="VdA5xrBJ5W-MHvM-NQZQ-15">
          <mxGeometry x="-0.2095" y="-2" relative="1" as="geometry">
            <mxPoint as="offset" />
          </mxGeometry>
        </mxCell>
        <mxCell id="VdA5xrBJ5W-MHvM-NQZQ-18" value="" style="fontSize=12;html=1;endArrow=blockThin;endFill=1;rounded=0;entryX=0;entryY=0;entryDx=0;entryDy=5;entryPerimeter=0;exitX=1;exitY=0;exitDx=0;exitDy=5;exitPerimeter=0;" edge="1" parent="1" source="VdA5xrBJ5W-MHvM-NQZQ-10" target="VdA5xrBJ5W-MHvM-NQZQ-17">
          <mxGeometry width="160" relative="1" as="geometry">
            <mxPoint x="90" y="180" as="sourcePoint" />
            <mxPoint x="85" y="185" as="targetPoint" />
          </mxGeometry>
        </mxCell>
        <mxCell id="VdA5xrBJ5W-MHvM-NQZQ-19" value="upload&lt;br&gt;resume" style="edgeLabel;html=1;align=center;verticalAlign=middle;resizable=0;points=[];" vertex="1" connectable="0" parent="VdA5xrBJ5W-MHvM-NQZQ-18">
          <mxGeometry x="-0.2095" y="-2" relative="1" as="geometry">
            <mxPoint x="12" y="-1" as="offset" />
          </mxGeometry>
        </mxCell>
        <mxCell id="VdA5xrBJ5W-MHvM-NQZQ-21" value="" style="fontSize=12;html=1;endArrow=blockThin;endFill=1;rounded=0;entryX=0;entryY=0;entryDx=0;entryDy=5;entryPerimeter=0;exitX=1;exitY=0;exitDx=0;exitDy=5;exitPerimeter=0;" edge="1" parent="1" source="VdA5xrBJ5W-MHvM-NQZQ-17" target="VdA5xrBJ5W-MHvM-NQZQ-20">
          <mxGeometry width="160" relative="1" as="geometry">
            <mxPoint x="230" y="190" as="sourcePoint" />
            <mxPoint x="205" y="195" as="targetPoint" />
          </mxGeometry>
        </mxCell>
        <mxCell id="VdA5xrBJ5W-MHvM-NQZQ-22" value="upload&lt;br&gt;resume" style="edgeLabel;html=1;align=center;verticalAlign=middle;resizable=0;points=[];" vertex="1" connectable="0" parent="VdA5xrBJ5W-MHvM-NQZQ-21">
          <mxGeometry x="-0.2095" y="-2" relative="1" as="geometry">
            <mxPoint x="12" y="-1" as="offset" />
          </mxGeometry>
        </mxCell>
        <mxCell id="VdA5xrBJ5W-MHvM-NQZQ-24" value="" style="fontSize=12;html=1;endArrow=blockThin;endFill=1;rounded=0;entryX=0;entryY=0;entryDx=0;entryDy=5;entryPerimeter=0;exitX=1;exitY=0;exitDx=0;exitDy=5;exitPerimeter=0;" edge="1" parent="1" source="VdA5xrBJ5W-MHvM-NQZQ-20" target="VdA5xrBJ5W-MHvM-NQZQ-26">
          <mxGeometry width="160" relative="1" as="geometry">
            <mxPoint x="330" y="200" as="sourcePoint" />
            <mxPoint x="325" y="205" as="targetPoint" />
          </mxGeometry>
        </mxCell>
        <mxCell id="VdA5xrBJ5W-MHvM-NQZQ-25" value="store &lt;br&gt;resume" style="edgeLabel;html=1;align=center;verticalAlign=middle;resizable=0;points=[];" vertex="1" connectable="0" parent="VdA5xrBJ5W-MHvM-NQZQ-24">
          <mxGeometry x="-0.2095" y="-2" relative="1" as="geometry">
            <mxPoint x="12" y="-1" as="offset" />
          </mxGeometry>
        </mxCell>
        <mxCell id="VdA5xrBJ5W-MHvM-NQZQ-27" value="" style="fontSize=12;html=1;endArrow=blockThin;endFill=1;rounded=0;dashed=1;exitX=0;exitY=1;exitDx=0;exitDy=-5;exitPerimeter=0;" edge="1" parent="1" source="VdA5xrBJ5W-MHvM-NQZQ-26" target="VdA5xrBJ5W-MHvM-NQZQ-20">
          <mxGeometry width="160" relative="1" as="geometry">
            <mxPoint x="414" y="230" as="sourcePoint" />
            <mxPoint x="329" y="230" as="targetPoint" />
          </mxGeometry>
        </mxCell>
        <mxCell id="VdA5xrBJ5W-MHvM-NQZQ-29" value="" style="fontSize=12;html=1;endArrow=blockThin;endFill=1;rounded=0;entryX=0;entryY=0;entryDx=0;entryDy=5;entryPerimeter=0;" edge="1" parent="1" source="VdA5xrBJ5W-MHvM-NQZQ-20" target="VdA5xrBJ5W-MHvM-NQZQ-23">
          <mxGeometry width="160" relative="1" as="geometry">
            <mxPoint x="380" y="250" as="sourcePoint" />
            <mxPoint x="445" y="215" as="targetPoint" />
          </mxGeometry>
        </mxCell>
        <mxCell id="VdA5xrBJ5W-MHvM-NQZQ-30" value="upload resume" style="edgeLabel;html=1;align=center;verticalAlign=middle;resizable=0;points=[];" vertex="1" connectable="0" parent="VdA5xrBJ5W-MHvM-NQZQ-29">
          <mxGeometry x="-0.2095" y="-2" relative="1" as="geometry">
            <mxPoint x="4" y="3" as="offset" />
          </mxGeometry>
        </mxCell>
        <mxCell id="VdA5xrBJ5W-MHvM-NQZQ-32" value="" style="fontSize=12;html=1;endArrow=blockThin;endFill=1;rounded=0;dashed=1;exitX=0;exitY=1;exitDx=0;exitDy=-5;exitPerimeter=0;entryX=1;entryY=1;entryDx=0;entryDy=-5;entryPerimeter=0;" edge="1" parent="1" source="VdA5xrBJ5W-MHvM-NQZQ-20" target="VdA5xrBJ5W-MHvM-NQZQ-17">
          <mxGeometry width="160" relative="1" as="geometry">
            <mxPoint x="445" y="235" as="sourcePoint" />
            <mxPoint x="335" y="235" as="targetPoint" />
          </mxGeometry>
        </mxCell>
        <mxCell id="VdA5xrBJ5W-MHvM-NQZQ-33" value="" style="fontSize=12;html=1;endArrow=blockThin;endFill=1;rounded=0;dashed=1;exitX=0;exitY=1;exitDx=0;exitDy=-5;exitPerimeter=0;entryX=1;entryY=1;entryDx=0;entryDy=-5;entryPerimeter=0;" edge="1" parent="1" source="VdA5xrBJ5W-MHvM-NQZQ-17" target="VdA5xrBJ5W-MHvM-NQZQ-10">
          <mxGeometry width="160" relative="1" as="geometry">
            <mxPoint x="325" y="265" as="sourcePoint" />
            <mxPoint x="215" y="265" as="targetPoint" />
          </mxGeometry>
        </mxCell>
        <mxCell id="VdA5xrBJ5W-MHvM-NQZQ-34" value="" style="fontSize=12;html=1;endArrow=blockThin;endFill=1;rounded=0;dashed=1;exitX=0;exitY=1;exitDx=0;exitDy=-5;exitPerimeter=0;entryX=1;entryY=1;entryDx=0;entryDy=-5;entryPerimeter=0;" edge="1" parent="1" source="VdA5xrBJ5W-MHvM-NQZQ-10" target="VdA5xrBJ5W-MHvM-NQZQ-13">
          <mxGeometry width="160" relative="1" as="geometry">
            <mxPoint x="205" y="265" as="sourcePoint" />
            <mxPoint x="95" y="265" as="targetPoint" />
          </mxGeometry>
        </mxCell>
        <mxCell id="VdA5xrBJ5W-MHvM-NQZQ-36" value="" style="fontSize=12;html=1;endArrow=blockThin;endFill=1;rounded=0;entryX=0;entryY=0;entryDx=0;entryDy=5;entryPerimeter=0;" edge="1" parent="1" source="VdA5xrBJ5W-MHvM-NQZQ-23" target="VdA5xrBJ5W-MHvM-NQZQ-35">
          <mxGeometry width="160" relative="1" as="geometry">
            <mxPoint x="570" y="260" as="sourcePoint" />
            <mxPoint x="675" y="260" as="targetPoint" />
          </mxGeometry>
        </mxCell>
        <mxCell id="VdA5xrBJ5W-MHvM-NQZQ-37" value="send resume" style="edgeLabel;html=1;align=center;verticalAlign=middle;resizable=0;points=[];" vertex="1" connectable="0" parent="VdA5xrBJ5W-MHvM-NQZQ-36">
          <mxGeometry x="-0.2095" y="-2" relative="1" as="geometry">
            <mxPoint x="4" y="-7" as="offset" />
          </mxGeometry>
        </mxCell>
        <mxCell id="VdA5xrBJ5W-MHvM-NQZQ-41" value="" style="fontSize=12;html=1;endArrow=blockThin;endFill=1;rounded=0;dashed=1;exitX=0;exitY=1;exitDx=0;exitDy=-5;exitPerimeter=0;entryX=1;entryY=1;entryDx=0;entryDy=-5;entryPerimeter=0;" edge="1" parent="1" source="VdA5xrBJ5W-MHvM-NQZQ-35" target="VdA5xrBJ5W-MHvM-NQZQ-23">
          <mxGeometry width="160" relative="1" as="geometry">
            <mxPoint x="445" y="235" as="sourcePoint" />
            <mxPoint x="335" y="235" as="targetPoint" />
          </mxGeometry>
        </mxCell>
        <mxCell id="VdA5xrBJ5W-MHvM-NQZQ-42" value="" style="fontSize=12;html=1;endArrow=blockThin;endFill=1;rounded=0;entryX=1;entryY=0;entryDx=0;entryDy=5;entryPerimeter=0;exitX=0;exitY=1;exitDx=0;exitDy=-5;exitPerimeter=0;" edge="1" parent="1" source="VdA5xrBJ5W-MHvM-NQZQ-23" target="VdA5xrBJ5W-MHvM-NQZQ-40">
          <mxGeometry width="160" relative="1" as="geometry">
            <mxPoint x="575" y="265" as="sourcePoint" />
            <mxPoint x="685" y="265" as="targetPoint" />
          </mxGeometry>
        </mxCell>
        <mxCell id="VdA5xrBJ5W-MHvM-NQZQ-43" value="send resume tips" style="edgeLabel;html=1;align=center;verticalAlign=middle;resizable=0;points=[];" vertex="1" connectable="0" parent="VdA5xrBJ5W-MHvM-NQZQ-42">
          <mxGeometry x="-0.2095" y="-2" relative="1" as="geometry">
            <mxPoint x="-19" y="-7" as="offset" />
          </mxGeometry>
        </mxCell>
        <mxCell id="VdA5xrBJ5W-MHvM-NQZQ-45" value="" style="fontSize=12;html=1;endArrow=blockThin;endFill=1;rounded=0;entryX=0;entryY=0;entryDx=0;entryDy=5;entryPerimeter=0;" edge="1" parent="1" source="VdA5xrBJ5W-MHvM-NQZQ-40" target="VdA5xrBJ5W-MHvM-NQZQ-44">
          <mxGeometry width="160" relative="1" as="geometry">
            <mxPoint x="565" y="325" as="sourcePoint" />
            <mxPoint x="335" y="325" as="targetPoint" />
          </mxGeometry>
        </mxCell>
        <mxCell id="VdA5xrBJ5W-MHvM-NQZQ-46" value="store resume tips" style="edgeLabel;html=1;align=center;verticalAlign=middle;resizable=0;points=[];" vertex="1" connectable="0" parent="VdA5xrBJ5W-MHvM-NQZQ-45">
          <mxGeometry x="-0.2095" y="-2" relative="1" as="geometry">
            <mxPoint x="12" y="-14" as="offset" />
          </mxGeometry>
        </mxCell>
        <mxCell id="VdA5xrBJ5W-MHvM-NQZQ-47" value="" style="fontSize=12;html=1;endArrow=blockThin;endFill=1;rounded=0;dashed=1;exitX=0;exitY=1;exitDx=0;exitDy=-5;exitPerimeter=0;" edge="1" parent="1" source="VdA5xrBJ5W-MHvM-NQZQ-44" target="VdA5xrBJ5W-MHvM-NQZQ-40">
          <mxGeometry width="160" relative="1" as="geometry">
            <mxPoint x="445" y="235" as="sourcePoint" />
            <mxPoint x="330" y="365" as="targetPoint" />
          </mxGeometry>
        </mxCell>
        <mxCell id="VdA5xrBJ5W-MHvM-NQZQ-48" value="&lt;font style=&quot;font-size: 9px;&quot;&gt;Thread 1&lt;/font&gt;" style="rounded=0;whiteSpace=wrap;html=1;fillColor=none;dashed=1;dashPattern=8 8;labelPosition=center;verticalLabelPosition=top;align=center;verticalAlign=bottom;" vertex="1" parent="1">
          <mxGeometry x="170" y="160" width="300" height="120" as="geometry" />
        </mxCell>
        <mxCell id="VdA5xrBJ5W-MHvM-NQZQ-49" value="&lt;font style=&quot;font-size: 9px;&quot;&gt;Thread 2&lt;/font&gt;" style="rounded=0;whiteSpace=wrap;html=1;fillColor=none;dashed=1;dashPattern=8 8;labelPosition=center;verticalLabelPosition=top;align=center;verticalAlign=bottom;" vertex="1" parent="1">
          <mxGeometry x="310" y="300" width="160" height="80" as="geometry" />
        </mxCell>
        <mxCell id="VdA5xrBJ5W-MHvM-NQZQ-50" value="Actor" style="shape=umlActor;verticalLabelPosition=top;verticalAlign=bottom;html=1;outlineConnect=0;labelPosition=center;align=center;" vertex="1" parent="1">
          <mxGeometry y="495" width="20" height="40" as="geometry" />
        </mxCell>
        <mxCell id="VdA5xrBJ5W-MHvM-NQZQ-51" value="Container" style="rounded=1;whiteSpace=wrap;html=1;fontColor=#FFFFFF;fillColor=#24A2D9;" vertex="1" parent="1">
          <mxGeometry x="50" y="485" width="90" height="40" as="geometry" />
        </mxCell>
        <mxCell id="VdA5xrBJ5W-MHvM-NQZQ-52" value="&lt;font style=&quot;font-size: 9px;&quot;&gt;Job candidate container&lt;/font&gt;" style="rounded=0;whiteSpace=wrap;html=1;fillColor=none;dashed=1;dashPattern=8 8;labelPosition=center;verticalLabelPosition=top;align=center;verticalAlign=bottom;" vertex="1" parent="1">
          <mxGeometry x="140" y="85" width="480" height="340" as="geometry" />
        </mxCell>
        <mxCell id="VdA5xrBJ5W-MHvM-NQZQ-53" value="Activation" style="html=1;points=[[0,0,0,0,5],[0,1,0,0,-5],[1,0,0,0,5],[1,1,0,0,-5]];perimeter=orthogonalPerimeter;outlineConnect=0;targetShapes=umlLifeline;portConstraint=eastwest;newEdgeStyle={&quot;curved&quot;:0,&quot;rounded&quot;:0};labelPosition=center;verticalLabelPosition=top;align=center;verticalAlign=bottom;" vertex="1" parent="1">
          <mxGeometry x="400" y="485" width="10" height="40" as="geometry" />
        </mxCell>
        <mxCell id="VdA5xrBJ5W-MHvM-NQZQ-54" value="" style="edgeStyle=elbowEdgeStyle;fontSize=12;html=1;endArrow=blockThin;endFill=1;rounded=0;entryX=0;entryY=0;entryDx=0;entryDy=5;entryPerimeter=0;exitX=1;exitY=0;exitDx=0;exitDy=5;exitPerimeter=0;" edge="1" parent="1">
          <mxGeometry width="160" relative="1" as="geometry">
            <mxPoint x="440" y="494.5400000000001" as="sourcePoint" />
            <mxPoint x="510" y="494.5400000000001" as="targetPoint" />
          </mxGeometry>
        </mxCell>
        <mxCell id="VdA5xrBJ5W-MHvM-NQZQ-55" value="call" style="edgeLabel;html=1;align=center;verticalAlign=middle;resizable=0;points=[];" vertex="1" connectable="0" parent="VdA5xrBJ5W-MHvM-NQZQ-54">
          <mxGeometry x="-0.2095" y="-2" relative="1" as="geometry">
            <mxPoint as="offset" />
          </mxGeometry>
        </mxCell>
        <mxCell id="VdA5xrBJ5W-MHvM-NQZQ-56" value="" style="fontSize=12;html=1;endArrow=blockThin;endFill=1;rounded=0;dashed=1;entryX=1;entryY=1;entryDx=0;entryDy=-5;entryPerimeter=0;" edge="1" parent="1">
          <mxGeometry width="160" relative="1" as="geometry">
            <mxPoint x="510" y="514.09" as="sourcePoint" />
            <mxPoint x="440" y="514.09" as="targetPoint" />
          </mxGeometry>
        </mxCell>
        <mxCell id="VdA5xrBJ5W-MHvM-NQZQ-57" value="return" style="edgeLabel;html=1;align=center;verticalAlign=middle;resizable=0;points=[];" vertex="1" connectable="0" parent="VdA5xrBJ5W-MHvM-NQZQ-56">
          <mxGeometry x="0.5091" y="-2" relative="1" as="geometry">
            <mxPoint x="13" y="2" as="offset" />
          </mxGeometry>
        </mxCell>
        <mxCell id="VdA5xrBJ5W-MHvM-NQZQ-59" value="Component" style="rounded=1;whiteSpace=wrap;html=1;fontColor=#FFFFFF;fillColor=#63BEF2;" vertex="1" parent="1">
          <mxGeometry x="165" y="485" width="90" height="40" as="geometry" />
        </mxCell>
        <mxCell id="VdA5xrBJ5W-MHvM-NQZQ-60" value="External system" style="rounded=1;whiteSpace=wrap;html=1;fontColor=#FFFFFF;fillColor=#8C8496;" vertex="1" parent="1">
          <mxGeometry x="280" y="485" width="90" height="40" as="geometry" />
        </mxCell>
        <mxCell id="VdA5xrBJ5W-MHvM-NQZQ-61" value="Legend" style="text;html=1;align=center;verticalAlign=middle;resizable=0;points=[];autosize=1;strokeColor=none;fillColor=none;fontStyle=1" vertex="1" parent="1">
          <mxGeometry x="-20" y="440" width="60" height="30" as="geometry" />
        </mxCell>
      </root>
    </mxGraphModel>
  </diagram>
  <diagram id="wBdCKWfaSxiJZSSwTXze" name="submit-a-resume">
    <mxGraphModel dx="1751" dy="825" grid="1" gridSize="10" guides="1" tooltips="1" connect="1" arrows="1" fold="1" page="1" pageScale="1" pageWidth="827" pageHeight="1169" math="0" shadow="0">
      <root>
        <mxCell id="0" />
        <mxCell id="1" parent="0" />
        <mxCell id="WDxJDtABS-D1CQ-1xl6s-1" value="Job candidate" style="shape=umlLifeline;perimeter=lifelinePerimeter;whiteSpace=wrap;html=1;container=1;dropTarget=0;collapsible=0;recursiveResize=0;outlineConnect=0;portConstraint=eastwest;newEdgeStyle={&quot;curved&quot;:0,&quot;rounded&quot;:0};participant=umlActor;labelPosition=center;verticalLabelPosition=top;align=center;verticalAlign=bottom;" vertex="1" parent="1">
          <mxGeometry x="-10" y="100" width="20" height="310" as="geometry" />
        </mxCell>
        <mxCell id="WDxJDtABS-D1CQ-1xl6s-2" value="" style="html=1;points=[[0,0,0,0,5],[0,1,0,0,-5],[1,0,0,0,5],[1,1,0,0,-5]];perimeter=orthogonalPerimeter;outlineConnect=0;targetShapes=umlLifeline;portConstraint=eastwest;newEdgeStyle={&quot;curved&quot;:0,&quot;rounded&quot;:0};" vertex="1" parent="WDxJDtABS-D1CQ-1xl6s-1">
          <mxGeometry x="5" y="70" width="10" height="130" as="geometry" />
        </mxCell>
        <mxCell id="WDxJDtABS-D1CQ-1xl6s-3" value="Story Container" style="shape=umlLifeline;perimeter=lifelinePerimeter;whiteSpace=wrap;html=1;container=1;dropTarget=0;collapsible=0;recursiveResize=0;outlineConnect=0;portConstraint=eastwest;newEdgeStyle={&quot;edgeStyle&quot;:&quot;elbowEdgeStyle&quot;,&quot;elbow&quot;:&quot;vertical&quot;,&quot;curved&quot;:0,&quot;rounded&quot;:0};fontColor=#FFFFFF;fillColor=#24A2D9;rounded=1;" vertex="1" parent="1">
          <mxGeometry x="750" y="100" width="100" height="310" as="geometry" />
        </mxCell>
        <mxCell id="WzNJw-Wpyzbkw0U4pz8W-4" value="" style="html=1;points=[[0,0,0,0,5],[0,1,0,0,-5],[1,0,0,0,5],[1,1,0,0,-5]];perimeter=orthogonalPerimeter;outlineConnect=0;targetShapes=umlLifeline;portConstraint=eastwest;newEdgeStyle={&quot;curved&quot;:0,&quot;rounded&quot;:0};" vertex="1" parent="WDxJDtABS-D1CQ-1xl6s-3">
          <mxGeometry x="45" y="180" width="10" height="70" as="geometry" />
        </mxCell>
        <mxCell id="WDxJDtABS-D1CQ-1xl6s-4" value="Candidate API" style="shape=umlLifeline;perimeter=lifelinePerimeter;whiteSpace=wrap;html=1;container=1;dropTarget=0;collapsible=0;recursiveResize=0;outlineConnect=0;portConstraint=eastwest;newEdgeStyle={&quot;edgeStyle&quot;:&quot;elbowEdgeStyle&quot;,&quot;elbow&quot;:&quot;vertical&quot;,&quot;curved&quot;:0,&quot;rounded&quot;:0};fontColor=#FFFFFF;fillColor=#63BEF2;rounded=1;" vertex="1" parent="1">
          <mxGeometry x="150" y="100" width="100" height="310" as="geometry" />
        </mxCell>
        <mxCell id="WDxJDtABS-D1CQ-1xl6s-5" value="" style="html=1;points=[[0,0,0,0,5],[0,1,0,0,-5],[1,0,0,0,5],[1,1,0,0,-5]];perimeter=orthogonalPerimeter;outlineConnect=0;targetShapes=umlLifeline;portConstraint=eastwest;newEdgeStyle={&quot;curved&quot;:0,&quot;rounded&quot;:0};" vertex="1" parent="WDxJDtABS-D1CQ-1xl6s-4">
          <mxGeometry x="45" y="80" width="10" height="120" as="geometry" />
        </mxCell>
        <mxCell id="WDxJDtABS-D1CQ-1xl6s-6" value="Resume service" style="shape=umlLifeline;perimeter=lifelinePerimeter;whiteSpace=wrap;html=1;container=1;dropTarget=0;collapsible=0;recursiveResize=0;outlineConnect=0;portConstraint=eastwest;newEdgeStyle={&quot;edgeStyle&quot;:&quot;elbowEdgeStyle&quot;,&quot;elbow&quot;:&quot;vertical&quot;,&quot;curved&quot;:0,&quot;rounded&quot;:0};fontColor=#FFFFFF;fillColor=#63BEF2;rounded=1;" vertex="1" parent="1">
          <mxGeometry x="270" y="100" width="100" height="310" as="geometry" />
        </mxCell>
        <mxCell id="WDxJDtABS-D1CQ-1xl6s-7" value="" style="html=1;points=[[0,0,0,0,5],[0,1,0,0,-5],[1,0,0,0,5],[1,1,0,0,-5]];perimeter=orthogonalPerimeter;outlineConnect=0;targetShapes=umlLifeline;portConstraint=eastwest;newEdgeStyle={&quot;curved&quot;:0,&quot;rounded&quot;:0};" vertex="1" parent="WDxJDtABS-D1CQ-1xl6s-6">
          <mxGeometry x="45" y="90" width="10" height="110" as="geometry" />
        </mxCell>
        <mxCell id="WDxJDtABS-D1CQ-1xl6s-9" value="AI Resume Tips Adapter" style="shape=umlLifeline;perimeter=lifelinePerimeter;whiteSpace=wrap;html=1;container=1;dropTarget=0;collapsible=0;recursiveResize=0;outlineConnect=0;portConstraint=eastwest;newEdgeStyle={&quot;edgeStyle&quot;:&quot;elbowEdgeStyle&quot;,&quot;elbow&quot;:&quot;vertical&quot;,&quot;curved&quot;:0,&quot;rounded&quot;:0};fontColor=#FFFFFF;fillColor=#63BEF2;rounded=1;" vertex="1" parent="1">
          <mxGeometry x="510" y="100" width="100" height="310" as="geometry" />
        </mxCell>
        <mxCell id="WDxJDtABS-D1CQ-1xl6s-11" value="AI Resume Tips System" style="shape=umlLifeline;perimeter=lifelinePerimeter;whiteSpace=wrap;html=1;container=1;dropTarget=0;collapsible=0;recursiveResize=0;outlineConnect=0;portConstraint=eastwest;newEdgeStyle={&quot;edgeStyle&quot;:&quot;elbowEdgeStyle&quot;,&quot;elbow&quot;:&quot;vertical&quot;,&quot;curved&quot;:0,&quot;rounded&quot;:0};fontColor=#FFFFFF;fillColor=#8C8496;rounded=1;gradientColor=none;" vertex="1" parent="1">
          <mxGeometry x="630" y="100" width="100" height="310" as="geometry" />
        </mxCell>
        <mxCell id="WDxJDtABS-D1CQ-1xl6s-13" value="Job candidate database" style="shape=umlLifeline;perimeter=lifelinePerimeter;whiteSpace=wrap;html=1;container=1;dropTarget=0;collapsible=0;recursiveResize=0;outlineConnect=0;portConstraint=eastwest;newEdgeStyle={&quot;edgeStyle&quot;:&quot;elbowEdgeStyle&quot;,&quot;elbow&quot;:&quot;vertical&quot;,&quot;curved&quot;:0,&quot;rounded&quot;:0};fontColor=#FFFFFF;fillColor=#63BEF2;rounded=1;" vertex="1" parent="1">
          <mxGeometry x="390" y="100" width="100" height="310" as="geometry" />
        </mxCell>
        <mxCell id="WDxJDtABS-D1CQ-1xl6s-14" value="" style="html=1;points=[[0,0,0,0,5],[0,1,0,0,-5],[1,0,0,0,5],[1,1,0,0,-5]];perimeter=orthogonalPerimeter;outlineConnect=0;targetShapes=umlLifeline;portConstraint=eastwest;newEdgeStyle={&quot;curved&quot;:0,&quot;rounded&quot;:0};" vertex="1" parent="WDxJDtABS-D1CQ-1xl6s-13">
          <mxGeometry x="45" y="100" width="10" height="80" as="geometry" />
        </mxCell>
        <mxCell id="WDxJDtABS-D1CQ-1xl6s-16" value="Clear View UI" style="shape=umlLifeline;perimeter=lifelinePerimeter;whiteSpace=wrap;html=1;container=1;dropTarget=0;collapsible=0;recursiveResize=0;outlineConnect=0;portConstraint=eastwest;newEdgeStyle={&quot;edgeStyle&quot;:&quot;elbowEdgeStyle&quot;,&quot;elbow&quot;:&quot;vertical&quot;,&quot;curved&quot;:0,&quot;rounded&quot;:0};fontColor=#FFFFFF;fillColor=#24A2D9;rounded=1;" vertex="1" parent="1">
          <mxGeometry x="30" y="100" width="100" height="310" as="geometry" />
        </mxCell>
        <mxCell id="WDxJDtABS-D1CQ-1xl6s-17" value="" style="html=1;points=[[0,0,0,0,5],[0,1,0,0,-5],[1,0,0,0,5],[1,1,0,0,-5]];perimeter=orthogonalPerimeter;outlineConnect=0;targetShapes=umlLifeline;portConstraint=eastwest;newEdgeStyle={&quot;curved&quot;:0,&quot;rounded&quot;:0};" vertex="1" parent="WDxJDtABS-D1CQ-1xl6s-16">
          <mxGeometry x="45" y="70" width="10" height="130" as="geometry" />
        </mxCell>
        <mxCell id="WDxJDtABS-D1CQ-1xl6s-18" value="" style="edgeStyle=elbowEdgeStyle;fontSize=12;html=1;endArrow=blockThin;endFill=1;rounded=0;entryX=0;entryY=0;entryDx=0;entryDy=5;entryPerimeter=0;exitX=1;exitY=0;exitDx=0;exitDy=5;exitPerimeter=0;" edge="1" parent="1" source="WDxJDtABS-D1CQ-1xl6s-2" target="WDxJDtABS-D1CQ-1xl6s-17">
          <mxGeometry width="160" relative="1" as="geometry">
            <mxPoint x="-140" y="220" as="sourcePoint" />
            <mxPoint x="20" y="220" as="targetPoint" />
          </mxGeometry>
        </mxCell>
        <mxCell id="WDxJDtABS-D1CQ-1xl6s-19" value="submit&lt;br&gt;resume" style="edgeLabel;html=1;align=center;verticalAlign=middle;resizable=0;points=[];" vertex="1" connectable="0" parent="WDxJDtABS-D1CQ-1xl6s-18">
          <mxGeometry x="-0.2095" y="-2" relative="1" as="geometry">
            <mxPoint as="offset" />
          </mxGeometry>
        </mxCell>
        <mxCell id="WDxJDtABS-D1CQ-1xl6s-20" value="" style="fontSize=12;html=1;endArrow=blockThin;endFill=1;rounded=0;entryX=0;entryY=0;entryDx=0;entryDy=5;entryPerimeter=0;exitX=1;exitY=0;exitDx=0;exitDy=5;exitPerimeter=0;" edge="1" parent="1" source="WDxJDtABS-D1CQ-1xl6s-17" target="WDxJDtABS-D1CQ-1xl6s-5">
          <mxGeometry width="160" relative="1" as="geometry">
            <mxPoint x="90" y="180" as="sourcePoint" />
            <mxPoint x="85" y="185" as="targetPoint" />
          </mxGeometry>
        </mxCell>
        <mxCell id="WDxJDtABS-D1CQ-1xl6s-21" value="submit&lt;br&gt;resume" style="edgeLabel;html=1;align=center;verticalAlign=middle;resizable=0;points=[];" vertex="1" connectable="0" parent="WDxJDtABS-D1CQ-1xl6s-20">
          <mxGeometry x="-0.2095" y="-2" relative="1" as="geometry">
            <mxPoint x="12" y="-1" as="offset" />
          </mxGeometry>
        </mxCell>
        <mxCell id="WDxJDtABS-D1CQ-1xl6s-22" value="" style="fontSize=12;html=1;endArrow=blockThin;endFill=1;rounded=0;entryX=0;entryY=0;entryDx=0;entryDy=5;entryPerimeter=0;exitX=1;exitY=0;exitDx=0;exitDy=5;exitPerimeter=0;" edge="1" parent="1" source="WDxJDtABS-D1CQ-1xl6s-5" target="WDxJDtABS-D1CQ-1xl6s-7">
          <mxGeometry width="160" relative="1" as="geometry">
            <mxPoint x="230" y="190" as="sourcePoint" />
            <mxPoint x="205" y="195" as="targetPoint" />
          </mxGeometry>
        </mxCell>
        <mxCell id="WDxJDtABS-D1CQ-1xl6s-23" value="submit&lt;br&gt;resume" style="edgeLabel;html=1;align=center;verticalAlign=middle;resizable=0;points=[];" vertex="1" connectable="0" parent="WDxJDtABS-D1CQ-1xl6s-22">
          <mxGeometry x="-0.2095" y="-2" relative="1" as="geometry">
            <mxPoint x="12" y="-1" as="offset" />
          </mxGeometry>
        </mxCell>
        <mxCell id="WDxJDtABS-D1CQ-1xl6s-24" value="" style="fontSize=12;html=1;endArrow=blockThin;endFill=1;rounded=0;entryX=0;entryY=0;entryDx=0;entryDy=5;entryPerimeter=0;" edge="1" parent="1" source="WDxJDtABS-D1CQ-1xl6s-7" target="WDxJDtABS-D1CQ-1xl6s-14">
          <mxGeometry width="160" relative="1" as="geometry">
            <mxPoint x="325" y="210" as="sourcePoint" />
            <mxPoint x="435" y="210" as="targetPoint" />
          </mxGeometry>
        </mxCell>
        <mxCell id="WDxJDtABS-D1CQ-1xl6s-25" value="set resume&amp;nbsp;&lt;div&gt;as submitted&lt;/div&gt;" style="edgeLabel;html=1;align=center;verticalAlign=middle;resizable=0;points=[];" vertex="1" connectable="0" parent="WDxJDtABS-D1CQ-1xl6s-24">
          <mxGeometry x="-0.2095" y="-2" relative="1" as="geometry">
            <mxPoint x="12" y="-1" as="offset" />
          </mxGeometry>
        </mxCell>
        <mxCell id="WDxJDtABS-D1CQ-1xl6s-26" value="" style="fontSize=12;html=1;endArrow=blockThin;endFill=1;rounded=0;dashed=1;" edge="1" parent="1">
          <mxGeometry width="160" relative="1" as="geometry">
            <mxPoint x="435" y="230" as="sourcePoint" />
            <mxPoint x="325" y="230" as="targetPoint" />
          </mxGeometry>
        </mxCell>
        <mxCell id="WDxJDtABS-D1CQ-1xl6s-27" value="" style="fontSize=12;html=1;endArrow=blockThin;endFill=1;rounded=0;entryX=0;entryY=0;entryDx=0;entryDy=5;entryPerimeter=0;" edge="1" parent="1" source="WDxJDtABS-D1CQ-1xl6s-7" target="WzNJw-Wpyzbkw0U4pz8W-4">
          <mxGeometry width="160" relative="1" as="geometry">
            <mxPoint x="322.75" y="290" as="sourcePoint" />
            <mxPoint x="797.25" y="290" as="targetPoint" />
          </mxGeometry>
        </mxCell>
        <mxCell id="WDxJDtABS-D1CQ-1xl6s-28" value="send resume" style="edgeLabel;html=1;align=center;verticalAlign=middle;resizable=0;points=[];" vertex="1" connectable="0" parent="WDxJDtABS-D1CQ-1xl6s-27">
          <mxGeometry x="-0.2095" y="-2" relative="1" as="geometry">
            <mxPoint x="39" y="-7" as="offset" />
          </mxGeometry>
        </mxCell>
        <mxCell id="WDxJDtABS-D1CQ-1xl6s-29" value="" style="fontSize=12;html=1;endArrow=blockThin;endFill=1;rounded=0;dashed=1;exitX=0;exitY=1;exitDx=0;exitDy=-5;exitPerimeter=0;entryX=1;entryY=1;entryDx=0;entryDy=-5;entryPerimeter=0;" edge="1" parent="1" source="WDxJDtABS-D1CQ-1xl6s-7" target="WDxJDtABS-D1CQ-1xl6s-5">
          <mxGeometry width="160" relative="1" as="geometry">
            <mxPoint x="445" y="235" as="sourcePoint" />
            <mxPoint x="335" y="235" as="targetPoint" />
          </mxGeometry>
        </mxCell>
        <mxCell id="WDxJDtABS-D1CQ-1xl6s-30" value="" style="fontSize=12;html=1;endArrow=blockThin;endFill=1;rounded=0;dashed=1;exitX=0;exitY=1;exitDx=0;exitDy=-5;exitPerimeter=0;entryX=1;entryY=1;entryDx=0;entryDy=-5;entryPerimeter=0;" edge="1" parent="1" source="WDxJDtABS-D1CQ-1xl6s-5" target="WDxJDtABS-D1CQ-1xl6s-17">
          <mxGeometry width="160" relative="1" as="geometry">
            <mxPoint x="325" y="265" as="sourcePoint" />
            <mxPoint x="215" y="265" as="targetPoint" />
          </mxGeometry>
        </mxCell>
        <mxCell id="WDxJDtABS-D1CQ-1xl6s-31" value="" style="fontSize=12;html=1;endArrow=blockThin;endFill=1;rounded=0;dashed=1;exitX=0;exitY=1;exitDx=0;exitDy=-5;exitPerimeter=0;entryX=1;entryY=1;entryDx=0;entryDy=-5;entryPerimeter=0;" edge="1" parent="1" source="WDxJDtABS-D1CQ-1xl6s-17" target="WDxJDtABS-D1CQ-1xl6s-2">
          <mxGeometry width="160" relative="1" as="geometry">
            <mxPoint x="205" y="265" as="sourcePoint" />
            <mxPoint x="95" y="265" as="targetPoint" />
          </mxGeometry>
        </mxCell>
        <mxCell id="WDxJDtABS-D1CQ-1xl6s-42" value="Actor" style="shape=umlActor;verticalLabelPosition=top;verticalAlign=bottom;html=1;outlineConnect=0;labelPosition=center;align=center;" vertex="1" parent="1">
          <mxGeometry y="495" width="20" height="40" as="geometry" />
        </mxCell>
        <mxCell id="WDxJDtABS-D1CQ-1xl6s-43" value="Container" style="rounded=1;whiteSpace=wrap;html=1;fontColor=#FFFFFF;fillColor=#24A2D9;" vertex="1" parent="1">
          <mxGeometry x="50" y="485" width="90" height="40" as="geometry" />
        </mxCell>
        <mxCell id="WDxJDtABS-D1CQ-1xl6s-45" value="Activation" style="html=1;points=[[0,0,0,0,5],[0,1,0,0,-5],[1,0,0,0,5],[1,1,0,0,-5]];perimeter=orthogonalPerimeter;outlineConnect=0;targetShapes=umlLifeline;portConstraint=eastwest;newEdgeStyle={&quot;curved&quot;:0,&quot;rounded&quot;:0};labelPosition=center;verticalLabelPosition=top;align=center;verticalAlign=bottom;" vertex="1" parent="1">
          <mxGeometry x="400" y="485" width="10" height="40" as="geometry" />
        </mxCell>
        <mxCell id="WDxJDtABS-D1CQ-1xl6s-46" value="" style="edgeStyle=elbowEdgeStyle;fontSize=12;html=1;endArrow=blockThin;endFill=1;rounded=0;entryX=0;entryY=0;entryDx=0;entryDy=5;entryPerimeter=0;exitX=1;exitY=0;exitDx=0;exitDy=5;exitPerimeter=0;" edge="1" parent="1">
          <mxGeometry width="160" relative="1" as="geometry">
            <mxPoint x="440" y="494.5400000000001" as="sourcePoint" />
            <mxPoint x="510" y="494.5400000000001" as="targetPoint" />
          </mxGeometry>
        </mxCell>
        <mxCell id="WDxJDtABS-D1CQ-1xl6s-47" value="call" style="edgeLabel;html=1;align=center;verticalAlign=middle;resizable=0;points=[];" vertex="1" connectable="0" parent="WDxJDtABS-D1CQ-1xl6s-46">
          <mxGeometry x="-0.2095" y="-2" relative="1" as="geometry">
            <mxPoint as="offset" />
          </mxGeometry>
        </mxCell>
        <mxCell id="WDxJDtABS-D1CQ-1xl6s-48" value="" style="fontSize=12;html=1;endArrow=blockThin;endFill=1;rounded=0;dashed=1;entryX=1;entryY=1;entryDx=0;entryDy=-5;entryPerimeter=0;" edge="1" parent="1">
          <mxGeometry width="160" relative="1" as="geometry">
            <mxPoint x="510" y="514.09" as="sourcePoint" />
            <mxPoint x="440" y="514.09" as="targetPoint" />
          </mxGeometry>
        </mxCell>
        <mxCell id="WDxJDtABS-D1CQ-1xl6s-49" value="return" style="edgeLabel;html=1;align=center;verticalAlign=middle;resizable=0;points=[];" vertex="1" connectable="0" parent="WDxJDtABS-D1CQ-1xl6s-48">
          <mxGeometry x="0.5091" y="-2" relative="1" as="geometry">
            <mxPoint x="13" y="2" as="offset" />
          </mxGeometry>
        </mxCell>
        <mxCell id="WDxJDtABS-D1CQ-1xl6s-50" value="Component" style="rounded=1;whiteSpace=wrap;html=1;fontColor=#FFFFFF;fillColor=#63BEF2;" vertex="1" parent="1">
          <mxGeometry x="165" y="485" width="90" height="40" as="geometry" />
        </mxCell>
        <mxCell id="WDxJDtABS-D1CQ-1xl6s-51" value="External system" style="rounded=1;whiteSpace=wrap;html=1;fontColor=#FFFFFF;fillColor=#8C8496;" vertex="1" parent="1">
          <mxGeometry x="280" y="485" width="90" height="40" as="geometry" />
        </mxCell>
        <mxCell id="WDxJDtABS-D1CQ-1xl6s-52" value="Legend" style="text;html=1;align=center;verticalAlign=middle;resizable=0;points=[];autosize=1;strokeColor=none;fillColor=none;fontStyle=1" vertex="1" parent="1">
          <mxGeometry x="-20" y="440" width="60" height="30" as="geometry" />
        </mxCell>
        <mxCell id="WzNJw-Wpyzbkw0U4pz8W-1" value="" style="fontSize=12;html=1;endArrow=blockThin;endFill=1;rounded=0;entryX=0;entryY=1;entryDx=0;entryDy=-5;entryPerimeter=0;" edge="1" parent="1">
          <mxGeometry width="160" relative="1" as="geometry">
            <mxPoint x="325" y="254.64" as="sourcePoint" />
            <mxPoint x="435" y="254.64" as="targetPoint" />
          </mxGeometry>
        </mxCell>
        <mxCell id="WzNJw-Wpyzbkw0U4pz8W-2" value="get resume" style="edgeLabel;html=1;align=center;verticalAlign=middle;resizable=0;points=[];" vertex="1" connectable="0" parent="WzNJw-Wpyzbkw0U4pz8W-1">
          <mxGeometry x="-0.2095" y="-2" relative="1" as="geometry">
            <mxPoint x="12" y="-1" as="offset" />
          </mxGeometry>
        </mxCell>
        <mxCell id="WzNJw-Wpyzbkw0U4pz8W-3" value="" style="fontSize=12;html=1;endArrow=blockThin;endFill=1;rounded=0;dashed=1;" edge="1" parent="1" target="WDxJDtABS-D1CQ-1xl6s-7">
          <mxGeometry width="160" relative="1" as="geometry">
            <mxPoint x="435" y="270" as="sourcePoint" />
            <mxPoint x="330" y="270" as="targetPoint" />
          </mxGeometry>
        </mxCell>
        <mxCell id="WzNJw-Wpyzbkw0U4pz8W-6" style="rounded=0;orthogonalLoop=1;jettySize=auto;html=1;endArrow=none;endFill=0;dashed=1;dashPattern=1 1;" edge="1" parent="1" source="WzNJw-Wpyzbkw0U4pz8W-5" target="WzNJw-Wpyzbkw0U4pz8W-4">
          <mxGeometry relative="1" as="geometry">
            <mxPoint x="880" y="150" as="targetPoint" />
          </mxGeometry>
        </mxCell>
        <mxCell id="WzNJw-Wpyzbkw0U4pz8W-5" value="Creation of story not covered in this diagram" style="shape=note2;boundedLbl=1;whiteSpace=wrap;html=1;size=13;verticalAlign=top;align=center;fontSize=6;" vertex="1" parent="1">
          <mxGeometry x="685" y="445" width="120" height="40" as="geometry" />
        </mxCell>
        <mxCell id="lHGfuBVID6neSLF5ODj7-1" value="&lt;font style=&quot;font-size: 9px;&quot;&gt;Job candidate container&lt;/font&gt;" style="rounded=0;whiteSpace=wrap;html=1;fillColor=none;dashed=1;dashPattern=8 8;labelPosition=center;verticalLabelPosition=top;align=center;verticalAlign=bottom;" vertex="1" parent="1">
          <mxGeometry x="140" y="85" width="480" height="340" as="geometry" />
        </mxCell>
      </root>
    </mxGraphModel>
  </diagram>
</mxfile>
